<svg width="80" height="26" fill="none" xmlns="http://www.w3.org/2000/svg"><path d="M34.045 13.333c0 3.61-2.938 6.269-6.544 6.269-3.606 0-6.544-2.66-6.544-6.269 0-3.634 2.938-6.268 6.544-6.268 3.606 0 6.544 2.634 6.544 6.268zm-2.864 0c0-2.255-1.703-3.798-3.68-3.798-1.976 0-3.68 1.543-3.68 3.798 0 2.233 1.704 3.799 3.68 3.799 1.977 0 3.68-1.569 3.68-3.799z" fill="#EA4335"/><path d="M48.162 13.333c0 3.61-2.938 6.269-6.544 6.269-3.606 0-6.544-2.66-6.544-6.269 0-3.631 2.938-6.268 6.544-6.268 3.605 0 6.544 2.634 6.544 6.268zm-2.865 0c0-2.255-1.703-3.798-3.68-3.798-1.976 0-3.679 1.543-3.679 3.798 0 2.233 1.703 3.799 3.68 3.799 1.976 0 3.68-1.569 3.68-3.799z" fill="#FBBC05"/><path d="M61.69 7.444v11.253c0 4.63-2.842 6.52-6.2 6.52-3.162 0-5.065-2.032-5.783-3.694l2.494-.997c.444 1.02 1.533 2.224 3.285 2.224 2.15 0 3.483-1.275 3.483-3.674v-.902h-.1c-.641.76-1.877 1.425-3.435 1.425-3.262 0-6.25-2.73-6.25-6.243 0-3.538 2.988-6.29 6.25-6.29 1.556 0 2.79.663 3.435 1.4h.1v-1.02h2.72v-.002zm-2.518 5.912c0-2.207-1.532-3.82-3.482-3.82-1.977 0-3.633 1.613-3.633 3.82 0 2.185 1.656 3.776 3.633 3.776 1.95 0 3.482-1.591 3.482-3.776z" fill="#4285F4"/><path d="M66.176.848v18.37h-2.794V.847h2.794z" fill="#34A853"/><path d="M77.065 15.396l2.223 1.425a6.552 6.552 0 01-5.435 2.778c-3.706 0-6.474-2.753-6.474-6.268 0-3.728 2.792-6.269 6.153-6.269 3.386 0 5.042 2.59 5.583 3.988l.297.712-8.72 3.47c.667 1.258 1.705 1.9 3.161 1.9 1.459 0 2.47-.69 3.212-1.736zm-6.844-2.255l5.83-2.326c-.322-.782-1.286-1.328-2.422-1.328-1.455 0-3.482 1.235-3.408 3.654z" fill="#EA4335"/><path d="M10.38 11.703v-2.66h9.326a8.5 8.5 0 01.138 1.606c0 1.995-.568 4.462-2.397 6.22-1.78 1.78-4.053 2.73-7.065 2.73C4.8 19.599.106 15.229.106 9.866.106 4.502 4.8.133 10.382.133c3.089 0 5.289 1.164 6.942 2.682L15.37 4.69c-1.186-1.068-2.792-1.899-4.992-1.899-4.076 0-7.264 3.157-7.264 7.074s3.188 7.074 7.264 7.074c2.645 0 4.15-1.02 5.115-1.948.782-.751 1.297-1.825 1.5-3.292l-6.614.003z" fill="#4285F4"/></svg>