<svg width="120" height="35" fill="none" xmlns="http://www.w3.org/2000/svg"><rect x="42" width="78" height="35" rx="3" fill="#3E3E3E"/><rect width="53" height="35" rx="3" fill="#FED036"/><path d="M25.24 24h-2.86v-9.34L18.62 24h-1.24l-3.76-9.34V24h-2.84V10.66h3.98L18 18.72l3.24-8.06h4V24zm13.45 0h-3.26l-2.62-4.74h-2.08V24h-2.84V10.66h6.24c1.374 0 2.46.4 3.26 1.2.814.8 1.22 1.833 1.22 3.1 0 1.093-.286 1.98-.86 2.66-.56.68-1.246 1.113-2.06 1.3l3 5.08zm-4.98-7.24c.587 0 1.067-.16 1.44-.48.374-.333.56-.773.56-1.32s-.186-.98-.56-1.3c-.373-.333-.853-.5-1.44-.5h-2.98v3.6h2.98zm9.412 6.98c-.32.32-.7.48-1.14.48-.44 0-.82-.16-1.14-.48-.32-.32-.48-.7-.48-1.14 0-.44.16-.82.48-1.14.32-.32.7-.48 1.14-.48.44 0 .82.16 1.14.48.32.32.48.7.48 1.14 0 .44-.16.82-.48 1.14z" fill="#3E3E3E"/><path d="M67.088 10.66h9.74v2.5h-6.9v2.36h3.46c1.373 0 2.453.407 3.24 1.22.786.813 1.18 1.82 1.18 3.02s-.394 2.207-1.18 3.02c-.787.813-1.867 1.22-3.24 1.22h-6.3V10.66zm5.92 7.36h-3.08v3.48h3.08c.56 0 1.013-.16 1.36-.48.36-.32.54-.74.54-1.26 0-.533-.18-.953-.54-1.26-.347-.32-.8-.48-1.36-.48zm6.56-7.36h2.84v4.74h3.4c1.387 0 2.48.413 3.28 1.24.8.827 1.2 1.847 1.2 3.06 0 1.227-.4 2.253-1.2 3.08-.787.813-1.88 1.22-3.28 1.22h-6.24V10.66zm5.86 7.24h-3.02v3.6h3.02c.573 0 1.04-.16 1.4-.48.373-.333.56-.773.56-1.32s-.187-.98-.56-1.3c-.36-.333-.827-.5-1.4-.5zm8.84 6.1h-2.86V10.66h2.86V24zm8.584 0h-2.86V13.16h-3.9v-2.5h10.64v2.5h-3.88V24z" fill="#fff"/></svg>