<svg width="31" height="22" fill="none" xmlns="http://www.w3.org/2000/svg"><g clip-path="url(#clip0_2_79)"><path d="M17.747 14.626c-.25 0-.488-.067-.664-.187-.176-.12-.275-.283-.275-.452V7.594c0-.17.099-.332.275-.452.176-.12.415-.187.664-.187.249 0 .488.067.664.187.176.12.275.283.275.452v6.393c0 .17-.099.332-.275.452-.176.12-.415.187-.664.187zm-2.818-.64V7.595c0-.17-.099-.332-.275-.452a1.198 1.198 0 00-.664-.187c-.25 0-.488.067-.664.187-.176.12-.275.283-.275.452v6.393c0 .17.099.332.275.452.176.12.415.187.664.187.249 0 .488-.067.664-.187.176-.12.275-.283.275-.452zm3.757 7.032h-2.818c-.996 0-1.95-.27-2.655-.75-.704-.479-1.1-1.129-1.102-1.807v-.415c-1.688-.524-3.17-1.538-4.368-3.007a12.475 12.475 0 01-2.148-3.989.866.866 0 010-.52c.157-.51.777-2.309 2.148-3.988 1.199-1.469 2.68-2.483 4.368-3.007v-.416c.002-.678.398-1.328 1.102-1.807.704-.48 1.66-.749 2.655-.75h2.818c.996.001 1.95.27 2.655.75.705.48 1.1 1.13 1.102 1.807v.083c.254.064.484.166.676.297.19.13.338.288.431.462l3.416 6.392c.15.283.15.592 0 .874L23.55 17.62c-.093.173-.24.33-.431.462a2.127 2.127 0 01-.676.297v.082c-.001.678-.397 1.328-1.102 1.808-.704.48-1.659.749-2.655.75zM13.99 3.163c.311-.029.625-.044.94-.044h5.634c0-.339-.198-.664-.55-.903-.352-.24-.83-.375-1.328-.375h-2.818c-.498 0-.975.135-1.327.375-.353.24-.55.564-.551.903v.044zm.94 14.02h6.855L25.2 10.79l-3.415-6.392H14.93c-5.372 0-7.294 5.74-7.496 6.395.202.65 2.124 6.39 7.496 6.39zm3.756 2.557c.498 0 .975-.135 1.328-.375.352-.24.55-.565.55-.903H14.93c-.314 0-.628-.015-.94-.045v.044c.001.34.2.664.552.904.352.24.83.375 1.327.375h2.818z" fill="#fff"/></g><defs><clipPath id="clip0_2_79"><path fill="#fff" transform="rotate(90 15.167 15.73)" d="M0 0h20.456v30.055H0z"/></clipPath></defs></svg>