<svg width="80" height="23" fill="none" xmlns="http://www.w3.org/2000/svg"><g clip-path="url(#clip0_2_363)"><path d="M76.274 20.027c1.57 0 2.681-.282 3.51-.89v-2.755c-.85.586-1.875.955-3.314.955-2.42 0-3.422-1.866-3.422-4.817 0-3.103 1.22-4.687 3.444-4.687 1.308 0 2.594.456 3.27.89V5.858c-.72-.39-1.962-.672-3.662-.672-4.338 0-6.583 3.103-6.583 7.442.021 4.752 2.223 7.4 6.757 7.4zm-21.21-1.258v-2.756c-1.046.716-2.834 1.345-4.468 1.345-2.485 0-3.423-1.171-3.575-3.558h8.196v-1.78c0-4.968-2.202-6.834-5.58-6.834-4.142 0-6.104 3.146-6.104 7.464 0 4.969 2.463 7.377 6.78 7.377 2.157 0 3.749-.585 4.751-1.258zM23.958 5.446v5.642h-4.534V5.446h-3.4v14.3h3.4v-5.968h4.534v5.967h3.4V5.446h-3.4zm18.725 11.609h-1.504V5.446h-9.897v1.215c0 3.494-.218 8.007-1.417 10.394h-1.09V23h3.14v-3.255h7.607V23h3.139v-5.945h.022zm23.215 2.69h3.858l-5.45-7.703 4.797-6.596H65.68l-4.796 6.597V5.446h-3.4v14.3h3.4v-7.03l5.014 7.03zM49.55 7.833c1.679 0 2.202 1.389 2.202 3.19v.282h-4.73c.087-2.279.915-3.472 2.528-3.472zm-11.77 9.222h-4.796c.937-2.148 1.199-6.054 1.199-8.528v-.434h3.596v8.962z" fill="#3E3E3E"/><path d="M13.188 19.745H9.722V2.67H8.174c-2.833 0-4.316 1.41-4.316 3.515 0 2.387 1.025 3.493 3.14 4.904l1.743 1.171-5.013 7.486H0l4.512-6.683C1.918 11.218.458 9.417.458 6.38.458 2.582 3.118 0 8.153 0h5.013v19.745h.022z" fill="#FC3F1D"/></g><defs><clipPath id="clip0_2_363"><path fill="#fff" d="M0 0h80v23H0z"/></clipPath></defs></svg>